# Blender 4.4.1
# www.blender.org
mtllib antena.mtl
o Cylinder.002
v 0.000000 -0.075397 -0.365080
v 0.000000 1.500423 -0.197905
v 0.258150 -0.075397 -0.258150
v 0.139940 1.500423 -0.139940
v 0.365080 -0.075397 0.000000
v 0.197905 1.500423 0.000000
v 0.258150 -0.075397 0.258150
v 0.139940 1.500423 0.139940
v 0.000000 -0.075397 0.365080
v 0.000000 1.500423 0.197905
v -0.258150 -0.075397 0.258150
v -0.139940 1.500423 0.139940
v -0.365080 -0.075397 0.000000
v -0.197905 1.500423 0.000000
v -0.258150 -0.075397 -0.258150
v -0.139940 1.500423 -0.139940
v 0.258150 1.500423 -0.258150
v 0.000000 1.500423 -0.365080
v 0.365080 1.500423 0.000000
v 0.258150 1.500423 0.258150
v 0.000000 1.500423 0.365080
v -0.258150 1.500423 0.258150
v -0.365080 1.500423 0.000000
v -0.258150 1.500423 -0.258150
v 0.067823 8.346556 -0.067823
v 0.000000 8.346556 -0.095916
v 0.095916 8.346556 0.000000
v 0.067823 8.346556 0.067823
v 0.000000 8.346556 0.095916
v -0.067823 8.346556 0.067823
v -0.095916 8.346556 0.000000
v -0.067823 8.346556 -0.067823
v 0.139940 8.346556 -0.139940
v 0.000000 8.346556 -0.197905
v 0.197905 8.346556 0.000000
v 0.139940 8.346556 0.139940
v 0.000000 8.346556 0.197905
v -0.139940 8.346556 0.139940
v -0.197905 8.346556 0.000000
v -0.139940 8.346556 -0.139940
v 0.067823 13.503030 -0.067823
v 0.000000 13.503030 -0.095916
v 0.095916 13.503030 0.000000
v 0.067823 13.503030 0.067823
v 0.000000 13.503030 0.095916
v -0.067823 13.503030 0.067823
v -0.095916 13.503030 0.000000
v -0.067823 13.503030 -0.067823
vn 0.3827 -0.0000 -0.9239
vn 0.9239 -0.0000 -0.3827
vn 0.9239 -0.0000 0.3827
vn 0.3827 -0.0000 0.9239
vn -0.3827 -0.0000 0.9239
vn -0.9239 -0.0000 0.3827
vn -0.9239 -0.0000 -0.3827
vn -0.3827 -0.0000 -0.9239
vn -0.0000 -1.0000 -0.0000
vn -0.0000 1.0000 -0.0000
vt 1.000000 0.500000
vt 1.000000 1.000000
vt 0.875000 1.000000
vt 0.875000 0.500000
vt 0.750000 1.000000
vt 0.750000 0.500000
vt 0.625000 1.000000
vt 0.625000 0.500000
vt 0.500000 1.000000
vt 0.500000 0.500000
vt 0.375000 1.000000
vt 0.375000 0.500000
vt 0.250000 1.000000
vt 0.250000 0.500000
vt 0.341995 0.341995
vt 0.250000 0.380101
vt 0.125000 1.000000
vt 0.125000 0.500000
vt 0.000000 1.000000
vt 0.000000 0.500000
vt 0.750000 0.490000
vt 0.919706 0.419706
vt 0.990000 0.250000
vt 0.919706 0.080294
vt 0.750000 0.010000
vt 0.580294 0.080294
vt 0.510000 0.250000
vt 0.580294 0.419706
vt 0.419706 0.419706
vt 0.250000 0.490000
vt 0.380101 0.250000
vt 0.490000 0.250000
vt 0.341995 0.158005
vt 0.419706 0.080294
vt 0.250000 0.119899
vt 0.250000 0.010000
vt 0.158005 0.158005
vt 0.080294 0.080294
vt 0.119899 0.250000
vt 0.010000 0.250000
vt 0.158005 0.341995
vt 0.080294 0.419706
vt 0.205414 0.294586
vt 0.186946 0.250000
vt 0.250000 0.313054
vt 0.294586 0.294586
vt 0.313054 0.250000
vt 0.294586 0.205414
vt 0.250000 0.186946
vt 0.205414 0.205414
s 0
f 1/1/1 18/2/1 17/3/1 3/4/1
f 3/4/2 17/3/2 19/5/2 5/6/2
f 5/6/3 19/5/3 20/7/3 7/8/3
f 7/8/4 20/7/4 21/9/4 9/10/4
f 9/10/5 21/9/5 22/11/5 11/12/5
f 11/12/6 22/11/6 23/13/6 13/14/6
f 4/15/1 2/16/1 34/16/1 33/15/1
f 13/14/7 23/13/7 24/17/7 15/18/7
f 15/18/8 24/17/8 18/19/8 1/20/8
f 1/21/9 3/22/9 5/23/9 7/24/9 9/25/9 11/26/9 13/27/9 15/28/9
f 2/16/10 4/15/10 17/29/10 18/30/10
f 4/15/10 6/31/10 19/32/10 17/29/10
f 6/31/10 8/33/10 20/34/10 19/32/10
f 8/33/10 10/35/10 21/36/10 20/34/10
f 10/35/10 12/37/10 22/38/10 21/36/10
f 12/37/10 14/39/10 23/40/10 22/38/10
f 14/39/10 16/41/10 24/42/10 23/40/10
f 16/41/10 2/16/10 18/30/10 24/42/10
f 32/43/7 31/44/7 47/44/7 48/43/7
f 2/16/8 16/41/8 40/41/8 34/16/8
f 14/39/6 12/37/6 38/37/6 39/39/6
f 10/35/4 8/33/4 36/33/4 37/35/4
f 6/31/2 4/15/2 33/15/2 35/31/2
f 16/41/7 14/39/7 39/39/7 40/41/7
f 12/37/5 10/35/5 37/35/5 38/37/5
f 8/33/3 6/31/3 35/31/3 36/33/3
f 26/45/10 25/46/10 33/15/10 34/16/10
f 25/46/10 27/47/10 35/31/10 33/15/10
f 27/47/10 28/48/10 36/33/10 35/31/10
f 28/48/10 29/49/10 37/35/10 36/33/10
f 29/49/10 30/50/10 38/37/10 37/35/10
f 30/50/10 31/44/10 39/39/10 38/37/10
f 31/44/10 32/43/10 40/41/10 39/39/10
f 32/43/10 26/45/10 34/16/10 40/41/10
f 41/46/10 42/45/10 48/43/10 47/44/10 46/50/10 45/49/10 44/48/10 43/47/10
f 30/50/5 29/49/5 45/49/5 46/50/5
f 28/48/3 27/47/3 43/47/3 44/48/3
f 25/46/1 26/45/1 42/45/1 41/46/1
f 26/45/8 32/43/8 48/43/8 42/45/8
f 31/44/6 30/50/6 46/50/6 47/44/6
f 29/49/4 28/48/4 44/48/4 45/49/4
f 27/47/2 25/46/2 41/46/2 43/47/2
