# Blender 4.4.3
# www.blender.org
mtllib repair.mtl
o Cylinder.071
v -1.276004 1.530860 -0.953741
v -1.276004 1.127776 -0.873563
v -1.276004 0.786058 -0.645234
v -1.276004 0.557730 -0.303516
v -1.276004 0.477551 0.099567
v -1.276004 0.557730 0.502651
v -1.276004 0.786058 0.844369
v -1.276004 1.127776 1.072698
v -1.276004 1.530860 1.152876
v -1.276004 1.933944 1.072698
v -1.276004 2.275661 0.844369
v -1.276004 2.503990 0.502651
v -1.276004 2.584169 0.099567
v -1.276004 2.503990 -0.303516
v -1.276004 2.275661 -0.645234
v -1.276004 1.933944 -0.873563
v -2.269275 1.530860 -0.953741
v -2.269275 1.127776 -0.873563
v -2.269275 0.786058 -0.645234
v -2.269275 0.557729 -0.303516
v -2.269275 0.477551 0.099567
v -2.269275 0.557729 0.502651
v -2.269275 0.786058 0.844369
v -2.269275 1.127776 1.072698
v -2.269275 1.530860 1.152876
v -2.269275 1.933944 1.072698
v -2.269275 2.275661 0.844369
v -2.269275 2.503990 0.502651
v -2.269275 2.584168 0.099567
v -2.269275 2.503990 -0.303516
v -2.269275 2.275661 -0.645234
v -2.269275 1.933944 -0.873563
v -1.082401 1.040404 -1.084499
v -1.082401 1.530860 -1.182056
v -1.082401 0.624615 -0.806677
v -1.082401 0.346794 -0.390889
v -1.082401 0.249236 0.099567
v -1.082401 0.346794 0.590024
v -1.082401 0.624615 1.005812
v -1.082401 1.040404 1.283633
v -1.082401 1.530860 1.381191
v -1.082401 2.021316 1.283633
v -1.082401 2.437105 1.005812
v -1.082401 2.714926 0.590024
v -1.082401 2.812484 0.099567
v -1.082401 2.714926 -0.390889
v -1.082401 2.437105 -0.806677
v -1.082401 2.021316 -1.084499
v -2.329313 1.151835 -0.815478
v -2.329313 1.530860 -0.890871
v -2.329313 0.830514 -0.600778
v -2.329313 0.615814 -0.279457
v -2.329313 0.540422 0.099567
v -2.329313 0.615814 0.478592
v -2.329313 0.830514 0.799913
v -2.329313 1.151835 1.014613
v -2.329313 1.530860 1.090006
v -2.329313 1.909884 1.014613
v -2.329313 2.231205 0.799913
v -2.329313 2.445905 0.478592
v -2.329313 2.521298 0.099567
v -2.329313 2.445905 -0.279457
v -2.329313 2.231205 -0.600778
v -2.329313 1.909884 -0.815478
v 2.322635 1.124604 -0.881221
v 2.106837 1.040404 -1.084499
v 2.259429 1.065065 -1.024960
v 2.106837 1.530860 -1.182056
v 2.322635 1.530860 -0.962030
v 2.259429 1.530860 -1.117612
v 2.322635 0.780197 -0.651096
v 2.106837 0.624615 -0.806677
v 2.259429 0.670184 -0.761109
v 2.322635 0.550071 -0.306689
v 2.106837 0.346794 -0.390889
v 2.259429 0.406333 -0.366227
v 2.322635 0.469262 0.099567
v 2.106837 0.249236 0.099567
v 2.259429 0.313680 0.099567
v 2.322635 0.550071 0.505823
v 2.106837 0.346794 0.590024
v 2.259429 0.406333 0.565362
v 2.322635 0.780197 0.850230
v 2.106837 0.624615 1.005812
v 2.259429 0.670184 0.960243
v 2.322635 1.124604 1.080356
v 2.106837 1.040404 1.283633
v 2.259429 1.065065 1.224095
v 2.322635 1.530860 1.161165
v 2.106837 1.530860 1.381191
v 2.259429 1.530860 1.316747
v 2.322635 1.937116 1.080356
v 2.106837 2.021316 1.283633
v 2.259429 1.996655 1.224095
v 2.322635 2.281523 0.850230
v 2.106837 2.437105 1.005812
v 2.259429 2.391536 0.960243
v 2.322635 2.511648 0.505823
v 2.106837 2.714926 0.590024
v 2.259429 2.655387 0.565362
v 2.322635 2.592458 0.099567
v 2.106837 2.812484 0.099567
v 2.259429 2.748039 0.099567
v 2.322635 2.511648 -0.306689
v 2.106837 2.714926 -0.390889
v 2.259429 2.655387 -0.366227
v 2.322635 2.281523 -0.651096
v 2.106837 2.437105 -0.806677
v 2.259429 2.391536 -0.761109
v 2.322635 1.937116 -0.881221
v 2.106837 2.021316 -1.084499
v 2.259429 1.996655 -1.024960
v -1.040464 -0.109208 -0.966967
v -1.040464 1.890792 -0.966967
v -1.040464 -0.109208 -1.457174
v -1.040464 1.890792 -1.457174
v -0.550257 -0.109208 -0.966967
v -0.550257 1.890792 -0.966967
v -0.550257 -0.109208 -1.457174
v -0.550257 1.890792 -1.457174
v -1.040464 -0.109208 1.606333
v -1.040464 1.890792 1.606333
v -1.040464 -0.109208 1.116125
v -1.040464 1.890792 1.116125
v -0.550257 -0.109208 1.606333
v -0.550257 1.890792 1.606333
v -0.550257 -0.109208 1.116125
v -0.550257 1.890792 1.116125
v 1.521483 -0.109208 -0.966967
v 1.521483 1.890792 -0.966967
v 1.521483 -0.109208 -1.457174
v 1.521483 1.890792 -1.457174
v 2.011690 -0.109208 -0.966967
v 2.011690 1.890792 -0.966967
v 2.011690 -0.109208 -1.457174
v 2.011690 1.890792 -1.457174
v 1.521483 -0.109208 1.606333
v 1.521483 1.890792 1.606333
v 1.521483 -0.109208 1.116125
v 1.521483 1.890792 1.116125
v 2.011690 -0.109208 1.606333
v 2.011690 1.890792 1.606333
v 2.011690 -0.109208 1.116125
v 2.011690 1.890792 1.116125
v -0.637426 0.962325 1.721510
v -0.637426 2.082205 1.721510
v -0.637426 0.962325 1.000948
v -0.637426 2.082205 1.000948
v 1.654012 0.962325 1.721510
v 1.654012 2.082205 1.721510
v 1.654012 0.962325 1.000948
v 1.654012 2.082205 1.000948
v -0.637426 0.962325 -0.889853
v -0.637426 2.082205 -0.889853
v -0.637426 0.962325 -1.610414
v -0.637426 2.082205 -1.610414
v 1.654012 0.962325 -0.889853
v 1.654012 2.082205 -0.889853
v 1.654012 0.962325 -1.610414
v 1.654012 2.082205 -1.610414
vn -0.0000 0.1951 0.9808
vn -0.0000 0.5556 0.8315
vn -0.0000 0.8315 0.5556
vn -0.0000 0.9808 0.1951
vn -0.0000 0.9808 -0.1951
vn -0.0000 0.8315 -0.5556
vn -0.0000 0.5556 -0.8315
vn -0.0000 0.1951 -0.9808
vn -0.0000 -0.1951 -0.9808
vn -0.0000 -0.5556 -0.8315
vn -0.0000 -0.8315 -0.5556
vn -0.0000 -0.9808 -0.1951
vn -0.0000 -0.9808 0.1951
vn -0.0000 -0.8315 0.5556
vn 0.7565 0.3634 0.5438
vn -0.0000 -0.5556 0.8315
vn -0.0000 -0.1951 0.9808
vn 0.7165 0.1361 0.6842
vn 0.7165 0.3876 0.5800
vn 0.7165 0.5800 0.3876
vn 0.7165 0.6842 0.1361
vn 0.7165 0.6842 -0.1361
vn 0.7165 0.5800 -0.3876
vn 0.7165 0.3876 -0.5800
vn 0.7165 0.1361 -0.6842
vn 0.7165 -0.1361 -0.6842
vn 0.7165 -0.3876 -0.5800
vn 0.7165 -0.5800 -0.3876
vn 0.7165 -0.6842 -0.1361
vn 0.7165 -0.6842 0.1361
vn 0.7165 -0.5800 0.3876
vn 0.7165 -0.3876 0.5800
vn 0.7165 -0.1361 0.6842
vn 0.7565 0.3634 -0.5438
vn 0.7565 -0.6415 -0.1276
vn 0.7565 0.6415 -0.1276
vn 0.7565 -0.3634 -0.5438
vn 0.7565 -0.3634 0.5438
vn 0.7565 0.5438 0.3634
vn 0.7565 0.1276 -0.6415
vn 0.7565 0.1276 0.6415
vn 0.7565 -0.6415 0.1276
vn 0.7565 0.5438 -0.3634
vn 0.7565 -0.5438 -0.3634
vn 0.7565 -0.1276 0.6415
vn 0.7565 0.6415 0.1276
vn 0.7565 -0.1276 -0.6415
vn 0.7565 -0.5438 0.3634
vn 1.0000 -0.0000 -0.0000
vn -0.3827 0.1802 0.9061
vn -0.9239 0.0747 0.3753
vn -0.3827 0.5133 0.7682
vn -0.9239 0.2126 0.3182
vn -0.3827 0.7682 0.5133
vn -0.9239 0.3182 0.2126
vn -0.3827 0.9061 0.1802
vn -0.9239 0.3753 0.0747
vn -0.3827 0.9061 -0.1802
vn -0.9239 0.3753 -0.0747
vn -0.3827 0.7682 -0.5133
vn -0.9239 0.3182 -0.2126
vn -0.3827 0.5133 -0.7682
vn -0.9239 0.2126 -0.3182
vn -0.3827 0.1802 -0.9061
vn -0.9239 0.0747 -0.3753
vn -0.3827 -0.1802 -0.9061
vn -0.9239 -0.0747 -0.3753
vn -0.3827 -0.5133 -0.7682
vn -0.9239 -0.2126 -0.3182
vn -0.3827 -0.7682 -0.5133
vn -0.9239 -0.3182 -0.2126
vn -0.3827 -0.9061 -0.1802
vn -0.9239 -0.3753 -0.0747
vn -0.3827 -0.9061 0.1802
vn -0.9239 -0.3753 0.0747
vn -0.3827 -0.7682 0.5133
vn -0.9239 -0.3182 0.2126
vn -0.3827 -0.5133 0.7682
vn -0.9239 -0.2126 0.3182
vn -0.3827 -0.1802 0.9061
vn -0.9239 -0.0747 0.3753
vn -1.0000 -0.0000 -0.0000
vn -0.0000 -0.0000 1.0000
vn -0.0000 -0.0000 -1.0000
vn -0.0000 1.0000 -0.0000
vn -0.0000 -1.0000 -0.0000
vt 1.000000 0.500000
vt 0.937500 0.500000
vt 0.937500 1.000000
vt 1.000000 1.000000
vt 0.875000 0.500000
vt 0.875000 1.000000
vt 0.812500 0.500000
vt 0.812500 1.000000
vt 0.750000 0.500000
vt 0.750000 1.000000
vt 0.687500 0.500000
vt 0.687500 1.000000
vt 0.625000 0.500000
vt 0.625000 1.000000
vt 0.562500 0.500000
vt 0.562500 1.000000
vt 0.500000 0.500000
vt 0.500000 1.000000
vt 0.437500 0.500000
vt 0.437500 1.000000
vt 0.375000 0.500000
vt 0.375000 1.000000
vt 0.312500 0.500000
vt 0.312500 1.000000
vt 0.250000 0.500000
vt 0.250000 1.000000
vt 0.187500 0.500000
vt 0.187500 1.000000
vt 0.125000 0.500000
vt 0.125000 1.000000
vt 0.062500 0.500000
vt 0.062500 1.000000
vt 0.000000 0.500000
vt 0.000000 1.000000
vt 0.836362 0.458496
vt 0.841844 0.471731
vt 0.750000 0.490000
vt 0.750000 0.475675
vt 0.909576 0.409576
vt 0.919706 0.419706
vt 0.958496 0.336362
vt 0.971731 0.341844
vt 0.975675 0.250000
vt 0.990000 0.250000
vt 0.958496 0.163638
vt 0.971731 0.158156
vt 0.909576 0.090424
vt 0.919706 0.080294
vt 0.836362 0.041504
vt 0.841844 0.028269
vt 0.750000 0.024325
vt 0.750000 0.010000
vt 0.663638 0.041504
vt 0.658156 0.028269
vt 0.590424 0.090424
vt 0.580294 0.080294
vt 0.541504 0.163638
vt 0.528269 0.158156
vt 0.524325 0.250000
vt 0.510000 0.250000
vt 0.541504 0.336362
vt 0.528269 0.341844
vt 0.590424 0.409576
vt 0.580294 0.419706
vt 0.663638 0.458496
vt 0.658156 0.471731
vt 0.625000 1.000000
vt 0.312500 1.000000
vt 0.939071 1.000000
vt 0.998429 1.000000
vt 0.913930 1.000000
vt 0.706806 1.000000
vt 0.230694 1.000000
vt 0.023570 1.000000
vt 0.875000 1.000000
vt 0.935929 1.000000
vt 0.793078 1.000000
vt 0.759541 1.000000
vt 0.712192 1.000000
vt 0.660447 1.000000
vt 0.606678 1.000000
vt 0.551855 1.000000
vt 0.496505 1.000000
vt 0.440995 1.000000
vt 0.385645 1.000000
vt 0.330822 1.000000
vt 0.277053 1.000000
vt 0.225308 1.000000
vt 0.177959 1.000000
vt 0.062500 1.000000
vt 0.144422 1.000000
vt 0.001571 1.000000
vt 0.375000 0.000000
vt 0.375000 0.250000
vt 0.625000 0.250000
vt 0.625000 0.000000
vt 0.375000 0.750000
vt 0.625000 0.750000
vt 0.125000 0.750000
vt 0.875000 0.750000
s 0
usemtl base
f 17/1/1 18/2/1 2/3/1 1/4/1
f 18/2/2 19/5/2 3/6/2 2/3/2
f 19/5/3 20/7/3 4/8/3 3/6/3
f 20/7/4 21/9/4 5/10/4 4/8/4
f 21/9/5 22/11/5 6/12/5 5/10/5
f 22/11/6 23/13/6 7/14/6 6/12/6
f 23/13/7 24/15/7 8/16/7 7/14/7
f 24/15/8 25/17/8 9/18/8 8/16/8
f 25/17/9 26/19/9 10/20/9 9/18/9
f 26/19/10 27/21/10 11/22/10 10/20/10
f 27/21/11 28/23/11 12/24/11 11/22/11
f 28/23/12 29/25/12 13/26/12 12/24/12
f 29/25/13 30/27/13 14/28/13 13/26/13
f 30/27/14 31/29/14 15/30/14 14/28/14
f 31/29/16 32/31/16 16/32/16 15/30/16
f 32/31/17 17/33/17 1/34/17 16/32/17
usemtl witecover
f 3/6/15 35/6/15 33/3/15 2/3/15
f 8/16/34 40/16/34 39/14/34 7/14/34
f 13/26/35 45/26/35 44/24/35 12/24/35
f 6/12/36 38/12/36 37/10/36 5/10/36
f 11/22/37 43/22/37 42/20/37 10/20/37
f 16/32/38 48/32/38 47/30/38 15/30/38
f 4/8/39 36/8/39 35/6/39 3/6/39
f 9/18/40 41/18/40 40/16/40 8/16/40
f 2/3/41 33/3/41 34/4/41 1/4/41
f 14/28/42 46/28/42 45/26/42 13/26/42
f 7/14/43 39/14/43 38/12/43 6/12/43
f 12/24/44 44/24/44 43/22/44 11/22/44
f 1/34/45 34/34/45 48/32/45 16/32/45
f 5/10/46 37/10/46 36/8/46 4/8/46
f 10/20/47 42/20/47 41/18/47 9/18/47
f 15/30/48 47/30/48 46/28/48 14/28/48
f 39/14/6 84/67/6 81/12/6 38/12/6
f 47/30/14 108/30/14 105/28/14 46/28/14
f 40/16/7 87/16/7 84/14/7 39/14/7
f 48/32/16 111/32/16 108/30/16 47/30/16
f 41/18/8 90/18/8 87/16/8 40/16/8
f 42/20/9 93/20/9 90/18/9 41/18/9
f 34/34/17 68/34/17 111/32/17 48/32/17
f 36/8/3 75/8/3 72/6/3 35/6/3
f 43/22/10 96/22/10 93/20/10 42/20/10
f 33/3/1 66/3/1 68/4/1 34/4/1
f 44/24/11 99/68/11 96/22/11 43/22/11
f 37/10/4 78/10/4 75/8/4 36/8/4
f 45/26/12 102/26/12 99/24/12 44/24/12
f 38/12/5 81/12/5 78/10/5 37/10/5
f 46/28/13 105/28/13 102/26/13 45/26/13
f 35/6/2 72/6/2 66/3/2 33/3/2
f 66/3/50 67/69/50 70/70/50 68/4/50
f 67/71/51 65/72/51 69/73/51 70/74/51
f 72/6/52 73/75/52 67/76/52 66/3/52
f 73/75/53 71/77/53 65/72/53 67/76/53
f 75/8/54 76/8/54 73/75/54 72/6/54
f 76/8/55 74/78/55 71/77/55 73/75/55
f 78/10/56 79/10/56 76/8/56 75/8/56
f 79/10/57 77/79/57 74/78/57 76/8/57
f 81/12/58 82/12/58 79/10/58 78/10/58
f 82/12/59 80/80/59 77/79/59 79/10/59
f 84/67/60 85/14/60 82/12/60 81/12/60
f 85/14/61 83/81/61 80/80/61 82/12/61
f 87/16/62 88/16/62 85/14/62 84/14/62
f 88/16/63 86/82/63 83/81/63 85/14/63
f 90/18/64 91/18/64 88/16/64 87/16/64
f 91/18/65 89/83/65 86/82/65 88/16/65
f 93/20/66 94/20/66 91/18/66 90/18/66
f 94/20/67 92/84/67 89/83/67 91/18/67
f 96/22/68 97/22/68 94/20/68 93/20/68
f 97/22/69 95/85/69 92/84/69 94/20/69
f 99/68/70 100/24/70 97/22/70 96/22/70
f 100/24/71 98/86/71 95/85/71 97/22/71
f 102/26/72 103/26/72 100/24/72 99/24/72
f 103/26/73 101/87/73 98/86/73 100/24/73
f 105/28/74 106/28/74 103/26/74 102/26/74
f 106/28/75 104/88/75 101/87/75 103/26/75
f 108/30/76 109/30/76 106/28/76 105/28/76
f 109/30/77 107/89/77 104/88/77 106/28/77
f 111/32/78 112/90/78 109/30/78 108/30/78
f 112/90/79 110/91/79 107/89/79 109/30/79
f 68/34/80 70/92/80 112/90/80 111/32/80
f 70/92/81 69/73/81 110/91/81 112/90/81
f 65/72/82 71/77/82 74/78/82 77/79/82 80/80/82 83/81/82 86/82/82 89/83/82 92/84/82 95/85/82 98/86/82 101/87/82 104/88/82 107/89/82 110/91/82 69/73/82
usemtl legs
f 49/35/18 18/36/18 17/37/18 50/38/18
f 51/39/19 19/40/19 18/36/19 49/35/19
f 52/41/20 20/42/20 19/40/20 51/39/20
f 53/43/21 21/44/21 20/42/21 52/41/21
f 54/45/22 22/46/22 21/44/22 53/43/22
f 55/47/23 23/48/23 22/46/23 54/45/23
f 56/49/24 24/50/24 23/48/24 55/47/24
f 57/51/25 25/52/25 24/50/25 56/49/25
f 58/53/26 26/54/26 25/52/26 57/51/26
f 59/55/27 27/56/27 26/54/27 58/53/27
f 60/57/28 28/58/28 27/56/28 59/55/28
f 61/59/29 29/60/29 28/58/29 60/57/29
f 62/61/30 30/62/30 29/60/30 61/59/30
f 63/63/31 31/64/31 30/62/31 62/61/31
f 64/65/32 32/66/32 31/64/32 63/63/32
f 50/38/33 17/37/33 32/66/33 64/65/33
f 64/65/49 63/63/49 62/61/49 61/59/49 60/57/49 59/55/49 58/53/49 57/51/49 56/49/49 55/47/49 54/45/49 53/43/49 52/41/49 51/39/49 49/35/49 50/38/49
usemtl 
f 113/93/49 115/94/49 116/95/49 114/96/49
f 115/94/83 119/21/83 120/13/83 116/95/83
f 119/21/82 117/97/82 118/98/82 120/13/82
f 117/97/84 113/22/84 114/14/84 118/98/84
f 115/29/85 113/99/85 117/97/85 119/21/85
f 120/13/86 118/98/86 114/100/86 116/5/86
f 121/93/49 123/94/49 124/95/49 122/96/49
f 123/94/83 127/21/83 128/13/83 124/95/83
f 127/21/82 125/97/82 126/98/82 128/13/82
f 125/97/84 121/22/84 122/14/84 126/98/84
f 123/29/85 121/99/85 125/97/85 127/21/85
f 128/13/86 126/98/86 122/100/86 124/5/86
f 129/93/49 131/94/49 132/95/49 130/96/49
f 131/94/83 135/21/83 136/13/83 132/95/83
f 135/21/82 133/97/82 134/98/82 136/13/82
f 133/97/84 129/22/84 130/14/84 134/98/84
f 131/29/85 129/99/85 133/97/85 135/21/85
f 136/13/86 134/98/86 130/100/86 132/5/86
f 137/93/49 139/94/49 140/95/49 138/96/49
f 139/94/83 143/21/83 144/13/83 140/95/83
f 143/21/82 141/97/82 142/98/82 144/13/82
f 141/97/84 137/22/84 138/14/84 142/98/84
f 139/29/85 137/99/85 141/97/85 143/21/85
f 144/13/86 142/98/86 138/100/86 140/5/86
f 145/93/49 147/94/49 148/95/49 146/96/49
f 147/94/83 151/21/83 152/13/83 148/95/83
f 151/21/82 149/97/82 150/98/82 152/13/82
f 149/97/84 145/22/84 146/14/84 150/98/84
f 147/29/85 145/99/85 149/97/85 151/21/85
f 152/13/86 150/98/86 146/100/86 148/5/86
f 153/93/49 155/94/49 156/95/49 154/96/49
f 155/94/83 159/21/83 160/13/83 156/95/83
f 159/21/82 157/97/82 158/98/82 160/13/82
f 157/97/84 153/22/84 154/14/84 158/98/84
f 155/29/85 153/99/85 157/97/85 159/21/85
f 160/13/86 158/98/86 154/100/86 156/5/86
