# Blender 4.4.3
# www.blender.org
mtllib chmo.mtl
o Cube.028
v -2.565595 -0.199923 3.078873
v -3.462595 -0.199923 2.181872
v -3.462595 0.301806 2.181872
v -2.565595 0.301806 3.078873
v -3.462595 -0.199923 -2.294890
v -2.565595 -0.199923 -3.191891
v -2.565595 0.301806 -3.191891
v -3.462595 0.301806 -2.294890
v 2.808168 -0.199923 2.181872
v 1.911168 -0.199923 3.078873
v 1.911168 0.301806 3.078873
v 2.808168 0.301806 2.181872
v 1.911168 -0.199923 -3.191891
v 2.808168 -0.199923 -2.294890
v 2.808168 0.301806 -2.294890
v 1.911168 0.301806 -3.191891
vn -0.0000 -0.0000 -1.0000
vn -1.0000 -0.0000 -0.0000
vn -0.0000 -1.0000 -0.0000
vn 1.0000 -0.0000 -0.0000
vn -0.0000 -0.0000 1.0000
vn 0.7071 -0.0000 -0.7071
vn 0.7071 -0.0000 0.7071
vn -0.7071 -0.0000 0.7071
vn -0.7071 -0.0000 -0.7071
vn -0.0000 1.0000 -0.0000
vt 0.375000 0.785761
vt 0.375000 0.964239
vt 0.625000 0.964239
vt 0.625000 0.785761
vt 0.375000 0.535761
vt 0.375000 0.714239
vt 0.625000 0.714239
vt 0.625000 0.535761
vt 0.660761 0.750000
vt 0.839239 0.750000
vt 0.875000 0.714239
vt 0.875000 0.535761
vt 0.839239 0.500000
vt 0.660761 0.500000
vt 0.375000 0.035761
vt 0.375000 0.214239
vt 0.625000 0.214239
vt 0.625000 0.035761
vt 0.375000 0.285761
vt 0.375000 0.464239
vt 0.625000 0.464239
vt 0.625000 0.285761
vt 0.375000 0.000000
vt 0.625000 0.000000
vt 0.125000 0.535761
vt 0.125000 0.714239
vt 0.160761 0.750000
vt 0.339239 0.750000
vt 0.339239 0.500000
vt 0.160761 0.500000
s 0
usemtl witecover
f 10/1/1 1/2/1 4/3/1 11/4/1
f 14/5/2 9/6/2 12/7/2 15/8/2
f 15/8/3 12/7/3 11/9/3 4/10/3 3/11/3 8/12/3 7/13/3 16/14/3
f 2/15/4 5/16/4 8/17/4 3/18/4
f 6/19/5 13/20/5 16/21/5 7/22/5
f 1/23/6 2/15/6 3/18/6 4/24/6
f 7/22/7 8/17/7 5/16/7 6/19/7
f 15/8/8 16/21/8 13/20/8 14/5/8
f 11/4/9 12/7/9 9/6/9 10/1/9
f 5/25/10 2/26/10 1/27/10 10/28/10 9/6/10 14/5/10 13/29/10 6/30/10
