# Blender 4.4.3
# www.blender.org
mtllib scie.mtl
o Cylinder.049
v -1.486507 1.530860 -0.776917
v -1.486507 1.118326 -0.694859
v -1.486507 0.768596 -0.461177
v -1.486507 0.534915 -0.111448
v -1.486507 0.452856 0.301086
v -1.486507 0.534915 0.713621
v -1.486507 0.768596 1.063350
v -1.486507 1.118326 1.297032
v -1.486507 1.530860 1.379090
v -1.486507 1.943394 1.297032
v -1.486507 2.293123 1.063350
v -1.486508 2.526805 0.713621
v -1.486508 2.608863 0.301086
v -1.486508 2.526805 -0.111448
v -1.486507 2.293123 -0.461177
v -1.486507 1.943394 -0.694859
v -2.506361 1.530860 -0.776917
v -2.506361 1.118326 -0.694859
v -2.506361 0.768596 -0.461177
v -2.506361 0.534914 -0.111448
v -2.506361 0.452856 0.301086
v -2.506361 0.534914 0.713621
v -2.506361 0.768596 1.063350
v -2.506361 1.118326 1.297032
v -2.506361 1.530860 1.379090
v -2.506361 1.943394 1.297032
v -2.506361 2.293123 1.063350
v -2.506361 2.526805 0.713621
v -2.506361 2.608863 0.301086
v -2.506361 2.526805 -0.111448
v -2.506361 2.293123 -0.461177
v -2.506361 1.943394 -0.694859
v -1.287723 1.028905 -0.910740
v -1.287723 1.530860 -1.010585
v -1.287723 0.603368 -0.626405
v -1.287723 0.319034 -0.200869
v -1.287723 0.219189 0.301086
v -1.287723 0.319034 0.803041
v -1.287723 0.603368 1.228578
v -1.287723 1.028905 1.512913
v -1.287723 1.530860 1.612758
v -1.287723 2.032815 1.512913
v -1.287723 2.458352 1.228578
v -1.287723 2.742686 0.803041
v -1.287723 2.842531 0.301086
v -1.287723 2.742686 -0.200869
v -1.287723 2.458352 -0.626405
v -1.287723 2.032815 -0.910740
v 2.774546 1.101365 -0.735806
v 2.588234 1.028905 -0.910740
v 2.719976 1.050128 -0.859503
v 2.588234 1.530860 -1.010585
v 2.774545 1.530860 -0.821237
v 2.719975 1.530860 -0.955126
v 2.774545 0.737257 -0.492516
v 2.588234 0.603368 -0.626405
v 2.719976 0.642584 -0.587190
v 2.774546 0.493968 -0.128408
v 2.588234 0.319034 -0.200869
v 2.719976 0.370271 -0.179645
v 2.774546 0.408536 0.301086
v 2.588234 0.219189 0.301086
v 2.719976 0.274647 0.301086
v 2.774546 0.493968 0.730581
v 2.588234 0.319034 0.803041
v 2.719976 0.370271 0.781818
v 2.774545 0.737257 1.094689
v 2.588234 0.603368 1.228578
v 2.719976 0.642584 1.189363
v 2.774546 1.101365 1.337978
v 2.588234 1.028905 1.512913
v 2.719976 1.050128 1.461676
v 2.774545 1.530860 1.423410
v 2.588234 1.530860 1.612758
v 2.719975 1.530860 1.557299
v 2.774545 1.960355 1.337978
v 2.588234 2.032815 1.512913
v 2.719975 2.011592 1.461676
v 2.774545 1.960355 -0.735806
v 2.588234 2.032815 -0.910740
v 2.719975 2.011592 -0.859503
v -2.568005 1.142949 -0.635412
v -2.568005 1.530860 -0.712573
v -2.568005 0.814095 -0.415679
v -2.568005 0.594361 -0.086824
v -2.568005 0.517201 0.301086
v -2.568005 0.594361 0.688997
v -2.568005 0.814095 1.017852
v -2.568005 1.142949 1.237585
v -2.568005 1.530860 1.314745
v -2.568005 1.918770 1.237585
v -2.568005 2.247625 1.017852
v -2.568005 2.467359 0.688997
v -2.568005 2.544519 0.301086
v -2.568005 2.467359 -0.086824
v -2.568005 2.247625 -0.415679
v -2.568005 1.918770 -0.635412
v 1.010112 1.028905 -0.910740
v 1.010112 1.530860 -1.010585
v 1.010112 0.603368 -0.626405
v 1.010112 2.032815 -0.910740
v 1.010112 0.319034 -0.200869
v 1.010112 0.219189 0.301086
v 1.010112 0.319034 0.803041
v 1.010112 0.603368 1.228578
v 1.010112 1.028905 1.512913
v 1.010112 1.530860 1.612758
v 1.010112 2.032815 1.512913
v 1.010112 2.458352 1.228578
v 1.010112 2.742687 0.803041
v 1.010112 2.842531 0.301086
v 1.010112 2.742687 -0.200869
v 1.010112 2.458352 -0.626405
v -1.299665 -0.109208 -0.804766
v -1.299665 1.890792 -0.804766
v -1.299665 -0.109208 -1.294973
v -1.299665 1.890792 -1.294973
v -0.809458 -0.109208 -0.804766
v -0.809458 1.890792 -0.804766
v -0.809458 -0.109208 -1.294973
v -0.809458 1.890792 -1.294973
v -1.299665 -0.109208 1.887934
v -1.299665 1.890792 1.887934
v -1.299665 -0.109208 1.397726
v -1.299665 1.890792 1.397726
v -0.809458 -0.109208 1.887934
v -0.809458 1.890792 1.887934
v -0.809458 -0.109208 1.397726
v -0.809458 1.890792 1.397726
v 1.813543 -0.109208 -0.804766
v 1.813543 1.890792 -0.804766
v 1.813543 -0.109208 -1.294973
v 1.813543 1.890792 -1.294973
v 2.303751 -0.109208 -0.804766
v 2.303751 1.890792 -0.804766
v 2.303751 -0.109208 -1.294973
v 2.303751 1.890792 -1.294973
v 1.813543 -0.109208 1.887934
v 1.813543 1.890792 1.887934
v 1.813543 -0.109208 1.397726
v 1.813543 1.890792 1.397726
v 2.303751 -0.109208 1.887934
v 2.303751 1.890792 1.887934
v 2.303751 -0.109208 1.397726
v 2.303751 1.890792 1.397726
vn -0.0000 0.1951 0.9808
vn -0.0000 0.5556 0.8315
vn -0.0000 0.8315 0.5556
vn -0.0000 0.9808 0.1951
vn -0.0000 0.9808 -0.1951
vn -0.0000 0.8315 -0.5556
vn -0.0000 0.5556 -0.8315
vn -0.0000 0.1951 -0.9808
vn -0.0000 -0.1951 -0.9808
vn -0.0000 -0.5556 -0.8315
vn -0.0000 -0.8315 -0.5556
vn -0.0000 -0.9808 -0.1951
vn -0.0000 -0.9808 0.1951
vn -0.0000 -0.8315 0.5556
vn 0.7554 0.3640 0.5448
vn -0.0000 -0.5556 0.8315
vn -0.0000 -0.1951 0.9808
vn 0.7154 0.1363 0.6853
vn 0.7154 0.3882 0.5810
vn 0.7154 0.5810 0.3882
vn 0.7154 0.6853 0.1363
vn 0.7154 0.6853 -0.1363
vn 0.7154 0.5810 -0.3882
vn 0.7154 0.3882 -0.5810
vn 0.7154 0.1363 -0.6853
vn 0.7154 -0.1363 -0.6853
vn 0.7154 -0.3882 -0.5810
vn 0.7154 -0.5810 -0.3882
vn 0.7154 -0.6853 -0.1363
vn 0.7154 -0.6853 0.1363
vn 0.7154 -0.5810 0.3882
vn 0.7154 -0.3882 0.5810
vn 0.7154 -0.1363 0.6853
vn 0.7554 0.3640 -0.5448
vn 0.7554 -0.6426 -0.1278
vn 0.7554 0.6426 -0.1278
vn 0.7554 -0.3640 -0.5448
vn 0.7554 -0.3640 0.5448
vn 0.7554 0.5448 0.3640
vn 0.7554 0.1278 -0.6426
vn 0.7554 0.1278 0.6426
vn 0.7554 -0.6426 0.1278
vn 0.7554 0.5448 -0.3640
vn 0.7554 -0.5448 -0.3640
vn 0.7554 -0.1278 0.6426
vn 0.7554 0.6426 0.1278
vn 0.7554 -0.1278 -0.6426
vn 0.7554 -0.5448 0.3640
vn -0.6845 -0.7290 -0.0000
vn -0.3816 0.1803 0.9066
vn -0.9234 0.0749 0.3764
vn -0.3816 0.5135 0.7685
vn -0.9234 0.2132 0.3191
vn -0.3816 0.7685 0.5135
vn -0.9234 0.3191 0.2132
vn -0.3816 0.9066 0.1803
vn -0.9234 0.3764 0.0749
vn -0.3816 0.9066 -0.1803
vn -0.9234 0.3764 -0.0749
vn -0.3816 0.7685 -0.5135
vn -0.9234 0.3191 -0.2132
vn -0.3816 0.5135 -0.7685
vn -0.9234 0.2132 -0.3191
vn -0.3816 0.1803 -0.9066
vn -0.9234 0.0749 -0.3764
vn -0.3816 -0.1803 -0.9066
vn -0.9234 -0.0749 -0.3764
vn -1.0000 -0.0000 -0.0000
vn -0.1590 -0.9873 -0.0000
vn -0.0000 -1.0000 -0.0000
vn -0.3816 -0.1803 0.9066
vn -0.9234 -0.0749 0.3764
vn 1.0000 -0.0000 -0.0000
vn -0.0000 -0.0000 1.0000
vn -0.0000 -0.0000 -1.0000
vn -0.0000 1.0000 -0.0000
vt 1.000000 0.500000
vt 0.937500 0.500000
vt 0.937500 1.000000
vt 1.000000 1.000000
vt 0.875000 0.500000
vt 0.875000 1.000000
vt 0.812500 0.500000
vt 0.812500 1.000000
vt 0.750000 0.500000
vt 0.750000 1.000000
vt 0.687500 0.500000
vt 0.687500 1.000000
vt 0.625000 0.500000
vt 0.625000 1.000000
vt 0.562500 0.500000
vt 0.562500 1.000000
vt 0.500000 0.500000
vt 0.500000 1.000000
vt 0.437500 0.500000
vt 0.437500 1.000000
vt 0.375000 0.500000
vt 0.375000 1.000000
vt 0.312500 0.500000
vt 0.312500 1.000000
vt 0.250000 0.500000
vt 0.250000 1.000000
vt 0.187500 0.500000
vt 0.187500 1.000000
vt 0.125000 0.500000
vt 0.125000 1.000000
vt 0.062500 0.500000
vt 0.062500 1.000000
vt 0.000000 0.500000
vt 0.000000 1.000000
vt 0.836362 0.458496
vt 0.841844 0.471731
vt 0.750000 0.490000
vt 0.750000 0.475675
vt 0.909576 0.409576
vt 0.919706 0.419706
vt 0.958496 0.336362
vt 0.971731 0.341844
vt 0.975675 0.250000
vt 0.990000 0.250000
vt 0.958496 0.163638
vt 0.971731 0.158156
vt 0.909576 0.090424
vt 0.919706 0.080294
vt 0.836362 0.041504
vt 0.841844 0.028269
vt 0.750000 0.024325
vt 0.750000 0.010000
vt 0.663638 0.041504
vt 0.658156 0.028269
vt 0.590424 0.090424
vt 0.580294 0.080294
vt 0.541504 0.163638
vt 0.528269 0.158156
vt 0.524325 0.250000
vt 0.510000 0.250000
vt 0.541504 0.336362
vt 0.528269 0.341844
vt 0.590424 0.409576
vt 0.580294 0.419706
vt 0.663638 0.458496
vt 0.658156 0.471731
vt 0.438821 1.000000
vt 0.061179 1.000000
vt 0.171414 0.439723
vt 0.171414 0.060277
vt 0.812500 1.000000
vt 0.938821 1.000000
vt 0.998679 1.000000
vt 0.339902 0.472117
vt 0.328586 0.439723
vt 0.250000 0.455355
vt 0.251942 0.489614
vt 0.876321 1.000000
vt 0.936179 1.000000
vt 0.418060 0.420805
vt 0.395208 0.395208
vt 0.343490 0.470631
vt 0.813821 1.000000
vt 0.873679 1.000000
vt 0.470631 0.343490
vt 0.439723 0.328586
vt 0.420805 0.418060
vt 0.751321 1.000000
vt 0.811179 1.000000
vt 0.489614 0.251942
vt 0.455355 0.250000
vt 0.472117 0.339902
vt 0.688821 1.000000
vt 0.748679 1.000000
vt 0.472117 0.160098
vt 0.439723 0.171414
vt 0.489614 0.248058
vt 0.626321 1.000000
vt 0.686179 1.000000
vt 0.420805 0.081940
vt 0.395208 0.104792
vt 0.470631 0.156510
vt 0.563821 1.000000
vt 0.623679 1.000000
vt 0.343490 0.029369
vt 0.328586 0.060277
vt 0.418060 0.079195
vt 0.501321 1.000000
vt 0.561179 1.000000
vt 0.251942 0.010386
vt 0.250000 0.044645
vt 0.339902 0.027883
vt 0.498679 1.000000
vt 0.160098 0.027883
vt 0.248058 0.010386
vt 0.375000 1.000000
vt 0.001321 1.000000
vt 0.248058 0.489614
vt 0.160098 0.472117
vt 0.375000 0.000000
vt 0.375000 0.250000
vt 0.625000 0.250000
vt 0.625000 0.000000
vt 0.375000 0.750000
vt 0.625000 0.750000
vt 0.125000 0.750000
vt 0.875000 0.750000
s 0
usemtl base
f 17/1/1 18/2/1 2/3/1 1/4/1
f 18/2/2 19/5/2 3/6/2 2/3/2
f 19/5/3 20/7/3 4/8/3 3/6/3
f 20/7/4 21/9/4 5/10/4 4/8/4
f 21/9/5 22/11/5 6/12/5 5/10/5
f 22/11/6 23/13/6 7/14/6 6/12/6
f 23/13/7 24/15/7 8/16/7 7/14/7
f 24/15/8 25/17/8 9/18/8 8/16/8
f 25/17/9 26/19/9 10/20/9 9/18/9
f 26/19/10 27/21/10 11/22/10 10/20/10
f 27/21/11 28/23/11 12/24/11 11/22/11
f 28/23/12 29/25/12 13/26/12 12/24/12
f 29/25/13 30/27/13 14/28/13 13/26/13
f 30/27/14 31/29/14 15/30/14 14/28/14
f 31/29/16 32/31/16 16/32/16 15/30/16
f 32/31/17 17/33/17 1/34/17 16/32/17
f 78/67/49 81/68/49 79/69/49 76/70/49
f 50/3/50 51/72/50 54/73/50 52/4/50
f 51/74/51 49/75/51 53/76/51 54/77/51
f 56/6/52 57/78/52 51/79/52 50/3/52
f 57/80/53 55/81/53 49/75/53 51/82/53
f 59/8/54 60/83/54 57/84/54 56/6/54
f 60/85/55 58/86/55 55/81/55 57/87/55
f 62/10/56 63/88/56 60/89/56 59/8/56
f 63/90/57 61/91/57 58/86/57 60/92/57
f 65/12/58 66/93/58 63/94/58 62/10/58
f 66/95/59 64/96/59 61/91/59 63/97/59
f 68/14/60 69/98/60 66/99/60 65/12/60
f 69/100/61 67/101/61 64/96/61 66/102/61
f 71/16/62 72/103/62 69/104/62 68/14/62
f 72/105/63 70/106/63 67/101/63 69/107/63
f 74/18/64 75/108/64 72/109/64 71/16/64
f 75/110/65 73/111/65 70/106/65 72/112/65
f 77/20/66 78/67/66 75/113/66 74/18/66
f 78/114/67 76/70/67 73/111/67 75/115/67
f 112/28/68 110/24/68 111/26/68
f 112/28/68 113/30/68 109/116/68 110/24/68
f 109/116/68 113/30/68 101/32/68 108/20/68
f 77/20/69 80/32/69 81/68/69 78/67/69
f 77/20/70 108/20/70 101/32/70 80/32/70
f 52/34/71 54/117/71 81/68/71 80/32/71
f 54/118/72 53/76/72 79/69/72 81/119/72
f 49/75/68 55/81/68 58/86/68 61/91/68 64/96/68 67/101/68 70/106/68 73/111/68 76/70/68 79/69/68 53/76/68
usemtl witecover
f 3/6/15 35/6/15 33/3/15 2/3/15
f 8/16/34 40/16/34 39/14/34 7/14/34
f 13/26/35 45/26/35 44/24/35 12/24/35
f 6/12/36 38/12/36 37/10/36 5/10/36
f 11/22/37 43/22/37 42/20/37 10/20/37
f 16/32/38 48/32/38 47/30/38 15/30/38
f 4/8/39 36/8/39 35/6/39 3/6/39
f 9/18/40 41/18/40 40/16/40 8/16/40
f 2/3/41 33/3/41 34/4/41 1/4/41
f 14/28/42 46/28/42 45/26/42 13/26/42
f 7/14/43 39/14/43 38/12/43 6/12/43
f 12/24/44 44/24/44 43/22/44 11/22/44
f 1/34/45 34/34/45 48/32/45 16/32/45
f 5/10/46 37/10/46 36/8/46 4/8/46
f 10/20/47 42/20/47 41/18/47 9/18/47
f 15/30/48 47/30/48 46/28/48 14/28/48
f 100/6/2 56/6/2 50/3/2 98/3/2
f 104/12/5 65/12/5 62/10/5 103/10/5
f 105/14/6 68/14/6 65/12/6 104/12/6
f 106/16/7 71/16/7 68/14/7 105/14/7
f 107/18/8 74/18/8 71/16/8 106/16/8
f 108/20/9 77/20/9 74/18/9 107/18/9
f 102/71/3 59/8/3 56/6/3 100/6/3
f 99/34/17 52/34/17 80/32/17 101/32/17
f 103/10/4 62/10/4 59/8/4 102/71/4
f 98/3/1 50/3/1 52/4/1 99/4/1
f 33/3/1 98/3/1 99/4/1 34/4/1
f 37/10/4 103/10/4 102/71/4 36/8/4
f 44/24/11 110/24/11 109/116/11 43/22/11
f 34/34/17 99/34/17 101/32/17 48/32/17
f 43/22/10 109/116/10 108/20/10 42/20/10
f 36/8/3 102/71/3 100/6/3 35/6/3
f 42/20/9 108/20/9 107/18/9 41/18/9
f 41/18/8 107/18/8 106/16/8 40/16/8
f 48/32/16 101/32/16 113/30/16 47/30/16
f 40/16/7 106/16/7 105/14/7 39/14/7
f 47/30/14 113/30/14 112/28/14 46/28/14
f 39/14/6 105/14/6 104/12/6 38/12/6
f 46/28/13 112/28/13 111/26/13 45/26/13
f 38/12/5 104/12/5 103/10/5 37/10/5
f 35/6/2 100/6/2 98/3/2 33/3/2
f 45/26/12 111/26/12 110/24/12 44/24/12
usemtl legs
f 82/35/18 18/36/18 17/37/18 83/38/18
f 84/39/19 19/40/19 18/36/19 82/35/19
f 85/41/20 20/42/20 19/40/20 84/39/20
f 86/43/21 21/44/21 20/42/21 85/41/21
f 87/45/22 22/46/22 21/44/22 86/43/22
f 88/47/23 23/48/23 22/46/23 87/45/23
f 89/49/24 24/50/24 23/48/24 88/47/24
f 90/51/25 25/52/25 24/50/25 89/49/25
f 91/53/26 26/54/26 25/52/26 90/51/26
f 92/55/27 27/56/27 26/54/27 91/53/27
f 93/57/28 28/58/28 27/56/28 92/55/28
f 94/59/29 29/60/29 28/58/29 93/57/29
f 95/61/30 30/62/30 29/60/30 94/59/30
f 96/63/31 31/64/31 30/62/31 95/61/31
f 97/65/32 32/66/32 31/64/32 96/63/32
f 83/38/33 17/37/33 32/66/33 97/65/33
f 97/65/73 96/63/73 95/61/73 94/59/73 93/57/73 92/55/73 91/53/73 90/51/73 89/49/73 88/47/73 87/45/73 86/43/73 85/41/73 84/39/73 82/35/73 83/38/73
usemtl 
f 114/120/73 116/121/73 117/122/73 115/123/73
f 116/121/74 120/21/74 121/13/74 117/122/74
f 120/21/68 118/124/68 119/125/68 121/13/68
f 118/124/75 114/22/75 115/14/75 119/125/75
f 116/29/76 114/126/76 118/124/76 120/21/76
f 121/13/70 119/125/70 115/127/70 117/5/70
f 122/120/73 124/121/73 125/122/73 123/123/73
f 124/121/74 128/21/74 129/13/74 125/122/74
f 128/21/68 126/124/68 127/125/68 129/13/68
f 126/124/75 122/22/75 123/14/75 127/125/75
f 124/29/76 122/126/76 126/124/76 128/21/76
f 129/13/70 127/125/70 123/127/70 125/5/70
f 130/120/73 132/121/73 133/122/73 131/123/73
f 132/121/74 136/21/74 137/13/74 133/122/74
f 136/21/68 134/124/68 135/125/68 137/13/68
f 134/124/75 130/22/75 131/14/75 135/125/75
f 132/29/76 130/126/76 134/124/76 136/21/76
f 137/13/70 135/125/70 131/127/70 133/5/70
f 138/120/73 140/121/73 141/122/73 139/123/73
f 140/121/74 144/21/74 145/13/74 141/122/74
f 144/21/68 142/124/68 143/125/68 145/13/68
f 142/124/75 138/22/75 139/14/75 143/125/75
f 140/29/76 138/126/76 142/124/76 144/21/76
f 145/13/70 143/125/70 139/127/70 141/5/70
